<svg xmlns="http://www.w3.org/2000/svg">
	<path d="M512 32c-229.76 0-416 186.24-416 416s186.24 416 416 416 416-186.24 416-416-186.24-416-416-416zM512 768c-176.704 0-320-143.264-320-320 0-176.704 143.296-320 320-320 176.736 0 320 143.296 320 320 0 176.736-143.264 320-320 320zM639.616 416h-96v-96c0-17.696-14.336-32-32-32-17.696 0-32 14.304-32 32v96h-96c-17.696 0-32 14.336-32 32s14.304 32 32 32h96v96c0 17.696 14.304 32 32 32 17.664 0 32-14.304 32-32v-96h96c17.664 0 32-14.336 32-32s-14.336-32-32-32z" />
</svg>